<svg width="103" height="24" viewBox="0 0 103 24" fill="none" xmlns="http://www.w3.org/2000/svg">
<path d="M-0.0079999 19V2.2H3.88V19H-0.0079999ZM15.551 5.896C16.575 5.896 17.487 6.104 18.287 6.52C19.103 6.92 19.743 7.544 20.207 8.392C20.671 9.224 20.903 10.296 20.903 11.608V19H17.159V12.184C17.159 11.144 16.927 10.376 16.463 9.88C16.015 9.384 15.375 9.136 14.543 9.136C13.951 9.136 13.415 9.264 12.935 9.52C12.471 9.76 12.103 10.136 11.831 10.648C11.575 11.16 11.447 11.816 11.447 12.616V19H7.703V6.088H11.279V9.664L10.607 8.584C11.071 7.72 11.735 7.056 12.599 6.592C13.463 6.128 14.447 5.896 15.551 5.896ZM30.0345 19.192C28.8185 19.192 27.7225 18.92 26.7465 18.376C25.7705 17.816 24.9945 17.04 24.4185 16.048C23.8585 15.056 23.5785 13.888 23.5785 12.544C23.5785 11.184 23.8585 10.008 24.4185 9.016C24.9945 8.024 25.7705 7.256 26.7465 6.712C27.7225 6.168 28.8185 5.896 30.0345 5.896C31.1225 5.896 32.0745 6.136 32.8905 6.616C33.7065 7.096 34.3385 7.824 34.7865 8.8C35.2345 9.776 35.4585 11.024 35.4585 12.544C35.4585 14.048 35.2425 15.296 34.8105 16.288C34.3785 17.264 33.7545 17.992 32.9385 18.472C32.1385 18.952 31.1705 19.192 30.0345 19.192ZM30.6825 16.12C31.2905 16.12 31.8425 15.976 32.3385 15.688C32.8345 15.4 33.2265 14.992 33.5145 14.464C33.8185 13.92 33.9705 13.28 33.9705 12.544C33.9705 11.792 33.8185 11.152 33.5145 10.624C33.2265 10.096 32.8345 9.688 32.3385 9.4C31.8425 9.112 31.2905 8.968 30.6825 8.968C30.0585 8.968 29.4985 9.112 29.0025 9.4C28.5065 9.688 28.1065 10.096 27.8025 10.624C27.5145 11.152 27.3705 11.792 27.3705 12.544C27.3705 13.28 27.5145 13.92 27.8025 14.464C28.1065 14.992 28.5065 15.4 29.0025 15.688C29.4985 15.976 30.0585 16.12 30.6825 16.12ZM34.0665 19V16.36L34.1385 12.52L33.8985 8.704V1.192H37.6425V19H34.0665ZM41.2077 19V6.088H44.9517V19H41.2077ZM43.0797 4.288C42.3917 4.288 41.8317 4.088 41.3997 3.688C40.9677 3.288 40.7517 2.792 40.7517 2.2C40.7517 1.608 40.9677 1.112 41.3997 0.711999C41.8317 0.311999 42.3917 0.111999 43.0797 0.111999C43.7677 0.111999 44.3277 0.303999 44.7597 0.688C45.1917 1.056 45.4077 1.536 45.4077 2.128C45.4077 2.752 45.1917 3.272 44.7597 3.688C44.3437 4.088 43.7837 4.288 43.0797 4.288ZM54.7664 19.192C53.3744 19.192 52.1344 18.912 51.0464 18.352C49.9584 17.776 49.1024 16.984 48.4784 15.976C47.8704 14.968 47.5664 13.824 47.5664 12.544C47.5664 11.248 47.8704 10.104 48.4784 9.112C49.1024 8.104 49.9584 7.32 51.0464 6.76C52.1344 6.184 53.3744 5.896 54.7664 5.896C56.1264 5.896 57.3104 6.184 58.3184 6.76C59.3264 7.32 60.0704 8.128 60.5504 9.184L57.6464 10.744C57.3104 10.136 56.8864 9.688 56.3744 9.4C55.8784 9.112 55.3344 8.968 54.7424 8.968C54.1024 8.968 53.5264 9.112 53.0144 9.4C52.5024 9.688 52.0944 10.096 51.7904 10.624C51.5024 11.152 51.3584 11.792 51.3584 12.544C51.3584 13.296 51.5024 13.936 51.7904 14.464C52.0944 14.992 52.5024 15.4 53.0144 15.688C53.5264 15.976 54.1024 16.12 54.7424 16.12C55.3344 16.12 55.8784 15.984 56.3744 15.712C56.8864 15.424 57.3104 14.968 57.6464 14.344L60.5504 15.928C60.0704 16.968 59.3264 17.776 58.3184 18.352C57.3104 18.912 56.1264 19.192 54.7664 19.192ZM68.7861 19.192C67.4101 19.192 66.1861 18.904 65.1141 18.328C64.0581 17.752 63.2181 16.968 62.5941 15.976C61.9861 14.968 61.6821 13.824 61.6821 12.544C61.6821 11.248 61.9861 10.104 62.5941 9.112C63.2181 8.104 64.0581 7.32 65.1141 6.76C66.1861 6.184 67.4101 5.896 68.7861 5.896C70.1461 5.896 71.3621 6.184 72.4341 6.76C73.5061 7.32 74.3461 8.096 74.9541 9.088C75.5621 10.08 75.8661 11.232 75.8661 12.544C75.8661 13.824 75.5621 14.968 74.9541 15.976C74.3461 16.968 73.5061 17.752 72.4341 18.328C71.3621 18.904 70.1461 19.192 68.7861 19.192ZM68.7861 16.12C69.4101 16.12 69.9701 15.976 70.4661 15.688C70.9621 15.4 71.3541 14.992 71.6421 14.464C71.9301 13.92 72.0741 13.28 72.0741 12.544C72.0741 11.792 71.9301 11.152 71.6421 10.624C71.3541 10.096 70.9621 9.688 70.4661 9.4C69.9701 9.112 69.4101 8.968 68.7861 8.968C68.1621 8.968 67.6021 9.112 67.1061 9.4C66.6101 9.688 66.2101 10.096 65.9061 10.624C65.6181 11.152 65.4741 11.792 65.4741 12.544C65.4741 13.28 65.6181 13.92 65.9061 14.464C66.2101 14.992 66.6101 15.4 67.1061 15.688C67.6021 15.976 68.1621 16.12 68.7861 16.12ZM78.4686 19V6.088H82.0446V9.736L81.5406 8.68C81.9246 7.768 82.5406 7.08 83.3886 6.616C84.2366 6.136 85.2686 5.896 86.4846 5.896V9.352C86.3246 9.336 86.1806 9.328 86.0526 9.328C85.9246 9.312 85.7886 9.304 85.6446 9.304C84.6206 9.304 83.7886 9.6 83.1486 10.192C82.5246 10.768 82.2126 11.672 82.2126 12.904V19H78.4686ZM96.4662 19.192C95.3782 19.192 94.4262 18.952 93.6102 18.472C92.7942 17.992 92.1542 17.264 91.6902 16.288C91.2422 15.296 91.0182 14.048 91.0182 12.544C91.0182 11.024 91.2342 9.776 91.6662 8.8C92.0982 7.824 92.7222 7.096 93.5382 6.616C94.3542 6.136 95.3302 5.896 96.4662 5.896C97.6822 5.896 98.7702 6.176 99.7302 6.736C100.706 7.28 101.474 8.048 102.034 9.04C102.61 10.032 102.898 11.2 102.898 12.544C102.898 13.904 102.61 15.08 102.034 16.072C101.474 17.064 100.706 17.832 99.7302 18.376C98.7702 18.92 97.6822 19.192 96.4662 19.192ZM88.8342 23.656V6.088H92.4102V8.728L92.3382 12.568L92.5782 16.384V23.656H88.8342ZM95.8182 16.12C96.4422 16.12 96.9942 15.976 97.4742 15.688C97.9702 15.4 98.3622 14.992 98.6502 14.464C98.9542 13.92 99.1062 13.28 99.1062 12.544C99.1062 11.792 98.9542 11.152 98.6502 10.624C98.3622 10.096 97.9702 9.688 97.4742 9.4C96.9942 9.112 96.4422 8.968 95.8182 8.968C95.1942 8.968 94.6342 9.112 94.1382 9.4C93.6422 9.688 93.2502 10.096 92.9622 10.624C92.6742 11.152 92.5302 11.792 92.5302 12.544C92.5302 13.28 92.6742 13.92 92.9622 14.464C93.2502 14.992 93.6422 15.4 94.1382 15.688C94.6342 15.976 95.1942 16.12 95.8182 16.12Z" fill="#252B42"/>
</svg>
